<svg width="50" height="48" viewBox="0 0 50 48" fill="none" xmlns="http://www.w3.org/2000/svg">
<rect width="50" height="48" rx="10" fill="#E7B400"/>
<path d="M29.5188 18C29.5188 16.656 29.0868 15.624 28.2228 14.904C27.3828 14.16 26.2188 13.788 24.7308 13.788C23.5548 13.788 22.5108 14.064 21.5988 14.616C20.6868 15.144 19.9308 15.876 19.3308 16.812L16.4508 14.724C17.4588 13.38 18.6108 12.312 19.9068 11.52C21.2268 10.704 22.9548 10.296 25.0908 10.296C26.6268 10.296 28.0188 10.62 29.2668 11.268C30.5388 11.916 31.5468 12.816 32.2908 13.968C33.0588 15.12 33.4428 16.464 33.4428 18C33.4428 19.416 33.0708 20.676 32.3268 21.78C31.6068 22.884 30.6708 23.772 29.5188 24.444C28.3668 25.092 27.1308 25.488 25.8108 25.632L25.5588 29.448H22.5348L21.8148 23.076H22.8228C24.2628 23.076 25.4748 22.824 26.4588 22.32C27.4668 21.792 28.2228 21.144 28.7268 20.376C29.2548 19.584 29.5188 18.792 29.5188 18ZM21.5628 34.272C21.5628 33.624 21.8028 33.072 22.2828 32.616C22.7868 32.136 23.3988 31.896 24.1188 31.896C24.8388 31.896 25.4388 32.136 25.9188 32.616C26.3988 33.072 26.6388 33.624 26.6388 34.272C26.6388 34.92 26.3988 35.484 25.9188 35.964C25.4388 36.444 24.8388 36.684 24.1188 36.684C23.3988 36.684 22.7868 36.444 22.2828 35.964C21.8028 35.484 21.5628 34.92 21.5628 34.272Z" fill="white"/>
</svg>
