<svg width="50" height="48" viewBox="0 0 50 48" fill="none" xmlns="http://www.w3.org/2000/svg">
<path d="M40 0H10C4.47715 0 0 4.29807 0 9.6V38.4C0 43.7019 4.47715 48 10 48H40C45.5228 48 50 43.7019 50 38.4V9.6C50 4.29807 45.5228 0 40 0Z" fill="#E7B400"/>
<path d="M27.0868 18.8466C26.7746 18.8466 26.4752 18.9658 26.2545 19.1776C26.0337 19.3896 25.9097 19.6769 25.9097 19.9767C25.9097 20.2764 26.0337 20.5638 26.2545 20.7758C26.4752 20.9876 26.7746 21.1067 27.0868 21.1067H32.5799C32.892 21.1067 33.1914 20.9876 33.4122 20.7758C33.6329 20.5638 33.7569 20.2764 33.7569 19.9767C33.7569 19.6769 33.6329 19.3896 33.4122 19.1776C33.1914 18.9658 32.892 18.8466 32.5799 18.8466H27.0868ZM25.9097 28.2634C25.9097 27.9637 26.0337 27.6762 26.2545 27.4643C26.4752 27.2524 26.7746 27.1334 27.0868 27.1334H32.5799C32.892 27.1334 33.1914 27.2524 33.4122 27.4643C33.6329 27.6762 33.7569 27.9637 33.7569 28.2634C33.7569 28.5631 33.6329 28.8504 33.4122 29.0624C33.1914 29.2743 32.892 29.3934 32.5799 29.3934H27.0868C26.7746 29.3934 26.4752 29.2743 26.2545 29.0624C26.0337 28.8504 25.9097 28.5631 25.9097 28.2634ZM23.2103 17.6715C23.4307 17.8834 23.5545 18.1706 23.5545 18.47C23.5545 18.7695 23.4307 19.0567 23.2103 19.2686L20.0714 22.2819C19.8507 22.4935 19.5515 22.6123 19.2396 22.6123C18.9277 22.6123 18.6285 22.4935 18.4078 22.2819L16.8383 20.7752C16.6304 20.561 16.5172 20.2777 16.5226 19.9849C16.528 19.6922 16.6515 19.4128 16.8672 19.2059C17.0828 18.9988 17.3738 18.8802 17.6787 18.8751C17.9837 18.8699 18.2788 18.9785 18.5019 19.1781L19.2396 19.8863L21.5467 17.6715C21.7674 17.4598 22.0665 17.341 22.3785 17.341C22.6904 17.341 22.9896 17.4598 23.2103 17.6715ZM23.2103 27.5552C23.3259 27.4518 23.4187 27.327 23.483 27.1884C23.5474 27.0497 23.5819 26.9002 23.5847 26.7484C23.5875 26.5967 23.5584 26.446 23.4992 26.3053C23.44 26.1646 23.3519 26.0368 23.2402 25.9294C23.1284 25.8222 22.9952 25.7376 22.8487 25.6808C22.7021 25.624 22.5451 25.596 22.3871 25.5987C22.229 25.6014 22.0732 25.6345 21.9288 25.6963C21.7844 25.7581 21.6544 25.8472 21.5467 25.9581L19.2396 28.1729L18.5019 27.4648C18.2788 27.2652 17.9837 27.1566 17.6787 27.1617C17.3738 27.1669 17.0828 27.2854 16.8672 27.4925C16.6515 27.6996 16.528 27.9788 16.5226 28.2716C16.5172 28.5643 16.6304 28.8476 16.8383 29.0619L18.4078 30.5685C18.6285 30.7802 18.9277 30.8991 19.2396 30.8991C19.5515 30.8991 19.8507 30.7802 20.0714 30.5685L23.2103 27.5552ZM14.5312 10.56C13.5947 10.56 12.6965 10.9171 12.0343 11.5529C11.372 12.1887 11 13.0509 11 13.95V34.2901C11 35.1891 11.372 36.0514 12.0343 36.6871C12.6965 37.3229 13.5947 37.68 14.5312 37.68H35.7188C36.6553 37.68 37.5535 37.3229 38.2157 36.6871C38.878 36.0514 39.25 35.1891 39.25 34.2901V13.95C39.25 13.0509 38.878 12.1887 38.2157 11.5529C37.5535 10.9171 36.6553 10.56 35.7188 10.56H14.5312ZM13.3542 13.95C13.3542 13.6503 13.4782 13.3629 13.6989 13.151C13.9197 12.9391 14.2191 12.82 14.5312 12.82H35.7188C36.0309 12.82 36.3303 12.9391 36.5511 13.151C36.7718 13.3629 36.8958 13.6503 36.8958 13.95V34.2901C36.8958 34.5897 36.7718 34.8771 36.5511 35.0891C36.3303 35.3009 36.0309 35.42 35.7188 35.42H14.5312C14.2191 35.42 13.9197 35.3009 13.6989 35.0891C13.4782 34.8771 13.3542 34.5897 13.3542 34.2901V13.95Z" fill="white"/>
</svg>
