<svg width="50" height="50" viewBox="0 0 50 50" fill="none" xmlns="http://www.w3.org/2000/svg">
<path d="M26.3683 17.6855C26.3683 17.2006 26.5609 16.7356 26.9038 16.3928C27.2466 16.05 27.7116 15.8574 28.1965 15.8574H42.2121C42.6969 15.8574 43.1619 16.05 43.5048 16.3928C43.8476 16.7356 44.0402 17.2006 44.0402 17.6855C44.0402 18.1703 43.8476 18.6353 43.5048 18.9782C43.1619 19.321 42.6969 19.5136 42.2121 19.5136H28.1965C27.7116 19.5136 27.2466 19.321 26.9038 18.9782C26.5609 18.6353 26.3683 18.1703 26.3683 17.6855ZM42.2121 23.1698H28.1965C27.7116 23.1698 27.2466 23.3624 26.9038 23.7053C26.5609 24.0481 26.3683 24.5131 26.3683 24.998C26.3683 25.4828 26.5609 25.9478 26.9038 26.2906C27.2466 26.6335 27.7116 26.8261 28.1965 26.8261H42.2121C42.6969 26.8261 43.1619 26.6335 43.5048 26.2906C43.8476 25.9478 44.0402 25.4828 44.0402 24.998C44.0402 24.5131 43.8476 24.0481 43.5048 23.7053C43.1619 23.3624 42.6969 23.1698 42.2121 23.1698ZM42.2121 30.4823H31.8527C31.3679 30.4823 30.9029 30.6749 30.56 31.0178C30.2172 31.3606 30.0246 31.8256 30.0246 32.3105C30.0246 32.7953 30.2172 33.2603 30.56 33.6031C30.9029 33.946 31.3679 34.1386 31.8527 34.1386H42.2121C42.6969 34.1386 43.1619 33.946 43.5048 33.6031C43.8476 33.2603 44.0402 32.7953 44.0402 32.3105C44.0402 31.8256 43.8476 31.3606 43.5048 31.0178C43.1619 30.6749 42.6969 30.4823 42.2121 30.4823ZM28.441 34.2923C28.5026 34.5254 28.5175 34.7683 28.4849 35.0072C28.4522 35.2461 28.3727 35.4761 28.2507 35.6841C28.1288 35.8921 27.967 36.0739 27.7745 36.2191C27.582 36.3643 27.3627 36.47 27.1293 36.5301C26.8958 36.5902 26.6527 36.6035 26.4141 36.5693C26.1754 36.535 25.9459 36.4539 25.7387 36.3307C25.5316 36.2074 25.3508 36.0443 25.2069 35.8509C25.063 35.6575 24.9588 35.4375 24.9002 35.2036C24.4603 33.5033 23.4681 31.9972 22.0793 30.922C20.6906 29.8468 18.984 29.2634 17.2277 29.2634C15.4714 29.2634 13.7648 29.8468 12.3761 30.922C10.9874 31.9972 9.9951 33.5033 9.55523 35.2036C9.43181 35.6703 9.1288 36.0693 8.71232 36.3134C8.29584 36.5575 7.7997 36.627 7.33218 36.5067C6.86466 36.3864 6.46371 36.086 6.21684 35.6711C5.96997 35.2563 5.89721 34.7606 6.01445 34.2923C6.41028 32.7525 7.11955 31.3109 8.0979 30.0577C9.07625 28.8045 10.3026 27.7666 11.7004 27.0089C10.5716 25.9095 9.79636 24.4985 9.4737 22.9562C9.15105 21.4139 9.29566 19.8104 9.88905 18.3507C10.4824 16.891 11.4976 15.6414 12.8049 14.7617C14.1121 13.882 15.652 13.4121 17.2277 13.4121C18.8034 13.4121 20.3433 13.882 21.6505 14.7617C22.9578 15.6414 23.973 16.891 24.5664 18.3507C25.1598 19.8104 25.3044 21.4139 24.9817 22.9562C24.6591 24.4985 23.8838 25.9095 22.7551 27.0089C24.1528 27.7665 25.3792 28.8044 26.3575 30.0576C27.3358 31.3108 28.0451 32.7524 28.441 34.2921V34.2923ZM17.2277 25.6073C18.0714 25.6073 18.8961 25.3572 19.5976 24.8885C20.299 24.4197 20.8458 23.7535 21.1686 22.9741C21.4915 22.1947 21.576 21.337 21.4114 20.5095C21.2468 19.6821 20.8405 18.922 20.244 18.3255C19.6474 17.7289 18.8873 17.3227 18.0599 17.1581C17.2324 16.9935 16.3748 17.0779 15.5953 17.4008C14.8159 17.7237 14.1497 18.2704 13.681 18.9719C13.2123 19.6734 12.9621 20.4981 12.9621 21.3417C12.9633 22.4727 13.4132 23.5569 14.2128 24.3566C15.0125 25.1563 16.0968 25.6061 17.2277 25.6073Z" fill="#E7B400"/>
<rect x="1.5" y="1.5" width="47" height="47" rx="8.5" stroke="#E7B400" stroke-width="3"/>
</svg>
