<svg width="50" height="50" viewBox="0 0 50 50" fill="none" xmlns="http://www.w3.org/2000/svg">
<path d="M16.0603 15.25C16.4913 15.25 16.9046 15.0788 17.2093 14.774C17.5141 14.4693 17.6853 14.056 17.6853 13.625C17.6853 13.194 17.5141 12.7807 17.2093 12.476C16.9046 12.1712 16.4913 12 16.0603 12H12.8103C12.3793 12 11.966 12.1712 11.6613 12.476C11.3565 12.7807 11.1853 13.194 11.1853 13.625V36.375C11.1853 36.806 11.3565 37.2193 11.6613 37.524C11.966 37.8288 12.3793 38 12.8103 38H16.0603C16.4913 38 16.9046 37.8288 17.2093 37.524C17.5141 37.2193 17.6853 36.806 17.6853 36.375C17.6853 35.944 17.5141 35.5307 17.2093 35.226C16.9046 34.9212 16.4913 34.75 16.0603 34.75H14.4353V15.25H16.0603ZM38.5178 24.0575L33.9353 17.5575C33.6868 17.2072 33.3097 16.9695 32.8864 16.8964C32.4631 16.8233 32.0282 16.9208 31.6766 17.1675C31.5008 17.2906 31.3512 17.4474 31.2364 17.6287C31.1215 17.81 31.0437 18.0122 31.0075 18.2237C30.9712 18.4352 30.9772 18.6518 31.0251 18.861C31.073 19.0702 31.1619 19.2678 31.2866 19.4425L34.0816 23.375H20.9353C20.5043 23.375 20.091 23.5462 19.7863 23.851C19.4815 24.1557 19.3103 24.569 19.3103 25C19.3103 25.431 19.4815 25.8443 19.7863 26.149C20.091 26.4538 20.5043 26.625 20.9353 26.625H33.9353L31.0103 30.525C30.8823 30.6957 30.7891 30.89 30.7361 31.0967C30.6832 31.3034 30.6715 31.5186 30.7016 31.7298C30.7318 31.9411 30.8033 32.1443 30.912 32.3279C31.0208 32.5115 31.1646 32.672 31.3353 32.8C31.6166 33.011 31.9587 33.125 32.3103 33.125C32.5626 33.125 32.8114 33.0663 33.037 32.9534C33.2627 32.8406 33.4589 32.6768 33.6103 32.475L38.4853 25.975C38.6934 25.7002 38.8087 25.3663 38.8146 25.0216C38.8204 24.6769 38.7165 24.3392 38.5178 24.0575Z" fill="#E7B400"/>
<rect x="1.5" y="1.5" width="47" height="47" rx="8.5" stroke="#E7B400" stroke-width="3"/>
</svg>
